<svg width="174" height="18" viewBox="0 0 174 18" fill="none" xmlns="http://www.w3.org/2000/svg">
<path d="M3.3 9.84C1.46 8.56 0.5 7.22 0.5 5.32C0.5 3.18 2.02 1.38 4.98 1.16C5.74 1.1 6.24 1.1 6.76 1.18C6.86 2.06 6.86 2.84 6.76 3.66C6.3 3.66 5.94 3.66 5.34 3.68C4 3.76 3.32 4.54 3.32 5.44C3.32 6.08 3.68 6.74 4.54 7.32C7.04 9.08 7.68 10.4 7.68 12.82C7.68 15 6.14 16.64 3.16 16.84C2.22 16.9 1.24 16.9 0.6 16.82C0.5 15.92 0.5 15.14 0.6 14.34C1.16 14.3 1.72 14.32 2.54 14.3C4.06 14.24 4.92 13.42 4.92 12.3C4.92 11.4 4.46 10.64 3.3 9.84ZM20.4255 5.62C22.9855 5.62 24.3855 7.28 24.3855 10.9C24.3855 12.94 24.3855 15.4 24.3455 16.8C23.8855 16.96 22.2055 16.96 21.6455 16.8C21.6255 15.96 21.6455 11.7 21.6455 11.04C21.6455 9.14 21.3255 8 19.9455 8C18.7855 8 18.2055 9.12 18.2055 10.88V10.98C18.2055 13.12 18.2255 15.4 18.1655 16.8C17.7055 16.96 15.9655 16.96 15.3855 16.8C15.3655 15.96 15.3855 11.82 15.3855 10.98C15.4055 9.1 14.9655 8 13.7655 8C12.6655 8 12.0655 8.96 11.9655 10.4C11.9655 13.22 11.9455 16.32 11.8855 16.8C11.2255 16.96 9.76547 16.96 9.26547 16.8C9.16547 15.86 9.16547 6.68 9.26547 5.72C9.82547 5.6 11.3055 5.6 11.8855 5.72C11.9055 5.84 11.9055 6.16 11.9255 6.58C12.5655 5.96 13.3655 5.62 14.2455 5.62C15.5855 5.62 16.6255 6.2 17.3055 7.26C18.0255 6.14 19.1455 5.62 20.4255 5.62ZM34.9748 10.2C35.0548 11.94 35.0548 15.84 34.9548 16.86C34.4148 16.96 32.9348 16.96 32.3348 16.86C32.3148 16.7 32.3148 16.5 32.3148 16.24C31.6748 16.68 30.8548 16.94 29.9148 16.94C27.2148 16.94 25.7548 15.7 25.7548 13.34C25.7548 11 27.2148 9.8 29.9148 9.8C30.8548 9.8 31.6748 10.04 32.3148 10.46C32.1548 8.66 31.3348 7.98 29.5548 7.98C28.7948 7.98 27.7348 8.14 26.7348 8.38C26.5548 7.76 26.3948 6.62 26.3948 5.98C27.2748 5.7 28.8348 5.54 30.0148 5.58C33.2548 5.7 34.8548 7.42 34.9748 10.2ZM30.4348 14.78C31.6548 14.78 32.2948 14.22 32.2948 13.28C32.2948 12.34 31.6548 11.84 30.4348 11.84C29.1148 11.84 28.4548 12.34 28.4548 13.32C28.4548 14.3 29.0948 14.78 30.4348 14.78ZM43.2761 5.66C43.3361 6.08 43.3361 7.68 43.2361 8.16C42.8761 8.14 42.6361 8.14 42.3761 8.14C41.1361 8.18 40.0161 9.28 39.8561 11.56C39.8561 14.02 39.8361 16.38 39.7961 16.8C39.2561 16.94 37.7961 16.94 37.1561 16.8C37.0561 15.94 37.0561 6.6 37.1561 5.72C37.7361 5.6 39.2161 5.6 39.7961 5.72C39.8161 5.88 39.8161 6.3 39.8361 6.88C40.5361 6.08 41.4361 5.64 42.4561 5.58C42.7361 5.58 43.0161 5.6 43.2761 5.66ZM51.1309 14.44C51.2309 14.9 51.2309 16.44 51.1309 16.9C50.7909 16.94 50.4709 16.96 49.9909 16.94C47.2509 16.82 45.8709 15.34 45.8709 12.24V8.08C44.9509 8.08 44.2309 8.08 44.1109 8.06C43.9909 7.86 43.9909 6.04 44.1109 5.7C44.1709 5.68 44.9109 5.66 45.8909 5.66C45.9109 4.12 45.9109 3 45.9109 2.72C46.4909 2.6 48.0309 2.6 48.6109 2.7C48.6109 3.1 48.6309 4.26 48.6309 5.66C49.7909 5.66 50.8109 5.68 51.1309 5.7C51.2109 5.96 51.2109 7.68 51.1309 8.04C50.8309 8.06 49.8109 8.08 48.6509 8.08V12.34C48.6509 13.8 49.1109 14.36 50.1309 14.44C50.4709 14.46 50.8109 14.46 51.1309 14.44ZM69.0391 5.4C67.7991 5.4 66.1591 5.38 65.5391 5.36C65.4591 4.84 65.4791 3.46 65.5391 3C66.1591 2.98 67.7991 2.96 69.0591 2.96C69.0591 1.72 69.0791 0.7 69.1191 0.359999C69.6591 0.24 71.1991 0.24 71.7391 0.359999C71.8591 1.36 71.8591 8.56 71.7391 9.56C71.2791 9.64 69.7391 9.64 69.1191 9.56C69.0791 9.1 69.0391 7.3 69.0391 5.4ZM60.4591 3.44C59.6991 5.26 57.9391 8.9 57.5391 9.54C57.0191 9.44 55.6991 8.82 55.2591 8.44C55.5591 7.52 58.4391 1.58 58.9991 0.62C59.6591 0.539999 61.0791 0.539999 61.7191 0.62C62.2991 1.46 65.4191 7.12 65.8391 8.04C65.4591 8.42 64.0991 9.16 63.5391 9.3C63.1191 8.66 61.2991 5.2 60.4591 3.44ZM64.1991 9.96C69.9991 9.96 72.0791 11.38 72.0791 13.84C72.0791 16.3 69.9991 17.72 64.1991 17.72C58.4191 17.72 56.3191 16.3 56.3191 13.84C56.3191 11.38 58.4191 9.96 64.1991 9.96ZM64.1991 15.42C68.2391 15.42 69.2991 14.8 69.2991 13.84C69.2991 12.88 68.2391 12.26 64.1991 12.26C60.1591 12.26 59.1191 12.88 59.1191 13.84C59.1191 14.8 60.1591 15.42 64.1991 15.42ZM87.3711 8.16C87.4511 8.96 87.4511 9.84 87.3711 10.54C86.1311 10.58 74.4311 10.58 73.4311 10.54C73.3311 9.82 73.3311 8.96 73.4311 8.16C73.8711 8.14 76.2911 8.12 79.0311 8.12C79.0111 7.72 79.0111 7.3 79.0311 6.9C76.7111 6.88 74.6311 6.86 74.0911 6.82C73.9511 5.06 73.9511 2.4 74.0911 0.659999C75.0511 0.52 85.1511 0.52 86.5111 0.659999C86.6111 1.12 86.5911 2.36 86.5111 2.92C85.4911 2.94 77.6111 2.94 76.8511 2.92V4.6C77.9311 4.56 85.7511 4.56 86.7111 4.6C86.7911 5.06 86.7911 6.28 86.7111 6.82C86.2311 6.86 84.1711 6.88 81.8311 6.9V8.12C84.4711 8.12 86.8511 8.14 87.3711 8.16ZM80.3911 11.38C85.2111 11.38 87.1111 12.62 87.1111 14.68C87.1111 16.74 85.2111 17.96 80.3911 17.96C75.5711 17.96 73.6711 16.74 73.6711 14.68C73.6711 12.62 75.5711 11.38 80.3911 11.38ZM80.3911 15.8C83.5511 15.8 84.3511 15.32 84.3511 14.68C84.3511 14.04 83.5511 13.54 80.3911 13.54C77.2311 13.54 76.4311 14.04 76.4311 14.68C76.4311 15.32 77.2311 15.8 80.3911 15.8ZM103.609 3.38C102.809 3.42 93.4486 3.4 92.5086 3.36C92.4086 2.6 92.4086 1.68 92.5086 0.919999C93.7086 0.839999 105.189 0.839999 106.289 0.919999C106.369 1.86 106.349 11.18 106.289 12.08C105.749 12.2 104.269 12.2 103.609 12.08C103.569 10.96 103.589 5.08 103.609 3.38ZM106.969 14.58C107.089 15.24 107.089 16.42 106.969 17.02C105.949 17.1 92.7086 17.1 91.8886 17.02C91.7686 16.4 91.7686 15.2 91.8886 14.58C92.0886 14.56 93.0086 14.54 94.2886 14.54C94.2686 12.38 94.2686 8.42 94.3086 7.66C94.8886 7.54 96.3886 7.54 96.9686 7.66C97.0086 8.42 97.0286 12.38 97.0086 14.52H98.9886C98.9686 12.38 98.9686 8.42 99.0086 7.66C99.5886 7.54 101.109 7.54 101.649 7.66C101.689 8.42 101.709 12.38 101.689 14.54C104.329 14.54 106.569 14.56 106.969 14.58ZM114.679 7.56C110.339 7.56 108.519 6.2 108.519 3.86C108.519 1.52 110.319 0.119999 114.679 0.119999C119.039 0.119999 120.859 1.5 120.859 3.86C120.859 6.2 119.059 7.56 114.679 7.56ZM114.679 2.4C111.979 2.4 111.239 3 111.239 3.86C111.239 4.76 112.079 5.3 114.679 5.3C117.399 5.3 118.119 4.7 118.119 3.86C118.119 2.92 117.299 2.4 114.679 2.4ZM121.239 8.38C121.319 9.16 121.319 10 121.239 10.72C120.939 10.72 120.059 10.72 118.879 10.74C118.899 11.3 118.899 11.92 118.879 12.48C119.819 12.5 120.499 12.52 120.699 12.54C120.779 13.36 120.759 16.78 120.699 17.46C120.019 17.54 118.679 17.54 117.979 17.46C117.959 16.9 117.959 15.5 117.979 14.74C117.019 14.78 109.539 14.78 108.639 14.74C108.539 14.34 108.539 12.96 108.639 12.54C108.879 12.52 109.559 12.5 110.519 12.48C110.499 11.92 110.499 11.3 110.519 10.74C109.279 10.72 108.359 10.72 108.099 10.72C107.999 9.98 107.999 9.14 108.099 8.38C109.099 8.34 119.999 8.34 121.239 8.38ZM116.099 12.46C116.079 11.92 116.079 11.3 116.099 10.74H113.299C113.299 11.3 113.299 11.92 113.299 12.46H116.099ZM143.716 7.16C143.796 7.52 143.796 9.3 143.716 9.66C143.316 9.7 142.516 9.72 141.736 9.72C141.736 13.4 141.716 16.84 141.656 17.3C141.196 17.44 139.616 17.44 138.996 17.3C138.896 16.32 138.896 1.36 138.996 0.359999C139.536 0.24 141.116 0.24 141.656 0.359999C141.716 0.779999 141.736 3.76 141.736 7.1C142.516 7.1 143.316 7.12 143.716 7.16ZM137.456 3.34C136.376 3.34 127.216 3.36 125.996 3.34C125.896 2.96 125.896 1.26 125.996 0.88C127.216 0.819999 136.376 0.819999 137.456 0.88C137.556 1.22 137.556 2.92 137.456 3.34ZM135.456 13.96C136.576 13.96 137.436 13.98 137.696 14C137.816 14.34 137.816 16.08 137.696 16.5C136.656 16.56 126.756 16.56 125.816 16.5C125.736 16.12 125.736 14.38 125.816 14C126.056 13.98 126.896 13.96 128.016 13.96C127.736 10.96 127.276 5.08 127.316 4.34C127.836 4.24 129.376 4.14 129.876 4.18C129.996 4.9 130.476 10.98 130.656 13.94H132.836C133.016 10.98 133.476 4.9 133.576 4.16C134.116 4.14 135.656 4.24 136.156 4.34C136.196 5.08 135.716 10.96 135.456 13.96ZM156.729 12.2C155.609 12.32 146.349 12.32 145.029 12.2C144.889 10.42 144.889 2.7 145.029 0.919999C145.989 0.779999 155.169 0.779999 156.529 0.919999C156.629 1.52 156.629 2.58 156.529 3.24C155.489 3.26 148.589 3.26 147.829 3.24C147.809 3.58 147.789 4.38 147.789 5.3C150.489 5.28 155.509 5.3 156.269 5.34C156.349 5.98 156.369 7.1 156.269 7.68C155.509 7.72 150.489 7.74 147.789 7.72C147.789 8.66 147.809 9.48 147.829 9.82C148.909 9.78 155.749 9.78 156.729 9.82C156.809 10.28 156.809 11.64 156.729 12.2ZM157.249 14.68C157.389 15.34 157.389 16.5 157.249 17.1C156.409 17.16 145.069 17.16 144.389 17.1C144.269 16.46 144.269 15.3 144.389 14.68C145.069 14.6 156.409 14.62 157.249 14.68ZM172.972 0.359999C173.072 1.36 173.072 16.32 172.972 17.3C172.472 17.42 170.972 17.42 170.312 17.3C170.272 16.78 170.252 12.36 170.252 8.16C168.452 8.18 165.652 8.16 164.792 8.12C164.652 7.72 164.652 6.06 164.792 5.66C165.652 5.6 168.452 5.58 170.252 5.62C170.272 2.92 170.292 0.72 170.312 0.359999C170.912 0.26 172.412 0.26 172.972 0.359999ZM161.752 13.88C162.672 13.88 166.972 13.88 167.872 13.9C167.932 14.38 167.932 15.98 167.872 16.46C166.852 16.54 160.052 16.54 159.052 16.46C158.932 15.62 158.932 1.72 159.052 0.9C159.672 0.839999 161.072 0.839999 161.752 0.9C161.772 2.22 161.772 12.58 161.752 13.88Z" fill="#1C1C1C"/>
</svg>
